<svg viewBox="0 0 800 500" preserveAspectRatio="none" xmlns="http://www.w3.org/2000/svg" xmlns:xlink="http://www.w3.org/1999/xlink" width="100%" id="blobSvg">
  <g transform="translate(166.22710800170898, -5.4027557373046875)">
    <defs>
      <linearGradient id="gradient" x1="0%" y1="0%" x2="0%" y2="100%">
        <stop offset="0%" style="stop-color: rgb(238, 205, 163);"></stop>
        <stop offset="100%" style="stop-color: rgb(239, 98, 159);"></stop>
      </linearGradient>
    </defs>
    <path class="blob" d="M440.5,296.5Q443,343,418.5,387Q394,431,348.5,456.5Q303,482,251.5,475.5Q200,469,160.5,440.5Q121,412,80.5,381.5Q40,351,25,300.5Q10,250,37,205.5Q64,161,79.5,108Q95,55,152,62.5Q209,70,256,44Q303,18,336,59.5Q369,101,412,126Q455,151,446.5,200.5Q438,250,440.5,296.5Z" fill="url(#gradient)"></path>
  </g>
</svg>